<svg width="1024" height="1024" viewBox="0 0 1024 1024" fill="none" xmlns="http://www.w3.org/2000/svg">
<g clip-path="url(#clip0_310_2485)">
<rect width="1024" height="1024" rx="240" fill="#0A0A0A"/>
<path fill-rule="evenodd" clip-rule="evenodd" d="M52.9881 280.323C25.4924 256.585 -3.15912 234.478 -32.9647 214L-114 327.369C1.60164 411.505 98.771 513.235 175.659 633.214C130.894 664.042 87.5003 696.855 45.4777 731.656C4.11016 765.781 -33.3027 803.74 -66.7617 845.533C-85.5304 869.985 -99.7168 896.956 -109.321 926.455C-124.231 991.027 -103.508 1040.39 -47.1511 1074.54C-23.2278 1087.05 2.08568 1095.39 28.7878 1099.56C68.8752 1106.11 109.209 1108.33 149.789 1106.24C178.087 1105.25 205.904 1101.08 233.239 1093.72C317.836 1069.5 371.106 1014.85 393.044 929.792C399.357 899.551 401.999 868.959 400.972 838.024C420.845 854.692 440.594 871.516 460.221 888.497C535.835 956.714 606.983 1030.89 674.352 1107L778.581 1012.38C664.347 882.165 538.755 764.813 401.807 660.327C429.004 644.145 456.543 628.433 484.422 613.192C579.412 562.231 679.278 516.15 779 475.621L724.756 347.064C577.209 406.146 431.315 478.309 295.409 560.217C227.763 456.116 146.956 362.819 52.9881 280.323ZM242.001 759.604C241.441 758.977 240.746 758.698 239.915 758.77C212.82 778.026 186.117 797.909 159.803 818.419C124.262 846.433 91.0219 877.162 60.0813 910.605C47.7984 924.311 37.3672 939.328 28.7878 955.654C36.108 958.324 43.6184 960.41 51.3192 961.911C82.8647 966.7 114.575 968.368 146.451 966.917C162.833 965.891 178.967 963.388 194.852 959.409C236.347 947.938 258.184 920.541 260.36 877.234C262.105 836.81 255.985 797.6 242.001 759.604Z" fill="white"/>
</g>
<defs>
<clipPath id="clip0_310_2485">
<rect width="1024" height="1024" rx="240" fill="white"/>
</clipPath>
</defs>
</svg>
