<svg width="48" height="49" viewBox="0 0 48 49" fill="none" xmlns="http://www.w3.org/2000/svg">
<path d="M28.8602 38.14C28.4802 38.14 28.1002 38 27.8002 37.7C27.2202 37.12 27.2202 36.16 27.8002 35.58L38.8802 24.5L27.8002 13.42C27.2202 12.84 27.2202 11.88 27.8002 11.3C28.3802 10.72 29.3402 10.72 29.9202 11.3L42.0602 23.44C42.6402 24.02 42.6402 24.98 42.0602 25.56L29.9202 37.7C29.6202 38 29.2402 38.14 28.8602 38.14Z" fill="#292D32"/>
<path d="M40.66 26H7C6.18 26 5.5 25.32 5.5 24.5C5.5 23.68 6.18 23 7 23H40.66C41.48 23 42.16 23.68 42.16 24.5C42.16 25.32 41.48 26 40.66 26Z" fill="#292D32"/>
</svg>
