<svg width="28" height="28" viewBox="0 0 28 28" fill="none" xmlns="http://www.w3.org/2000/svg">
<path d="M16.835 21.9567C16.6133 21.9567 16.3917 21.875 16.2167 21.7C15.8783 21.3617 15.8783 20.8017 16.2167 20.4633L22.68 14L16.2167 7.53668C15.8783 7.19835 15.8783 6.63835 16.2167 6.30001C16.555 5.96168 17.115 5.96168 17.4533 6.30001L24.535 13.3817C24.8733 13.72 24.8733 14.28 24.535 14.6183L17.4533 21.7C17.2783 21.875 17.0567 21.9567 16.835 21.9567Z" fill="white"/>
<path d="M23.7183 14.875H4.08333C3.60499 14.875 3.20833 14.4783 3.20833 14C3.20833 13.5217 3.60499 13.125 4.08333 13.125H23.7183C24.1967 13.125 24.5933 13.5217 24.5933 14C24.5933 14.4783 24.1967 14.875 23.7183 14.875Z" fill="white"/>
</svg>
