<svg width="28" height="28" viewBox="0 0 28 28" fill="none" xmlns="http://www.w3.org/2000/svg">
<path d="M14.0002 2.33331C7.57183 2.33331 2.3335 7.57165 2.3335 14C2.3335 20.4283 7.57183 25.6666 14.0002 25.6666C20.4285 25.6666 25.6668 20.4283 25.6668 14C25.6668 7.57165 20.4285 2.33331 14.0002 2.33331ZM17.2552 14.6183L13.1368 18.7366C12.9618 18.9116 12.7402 18.9933 12.5185 18.9933C12.2968 18.9933 12.0752 18.9116 11.9002 18.7366C11.5618 18.3983 11.5618 17.8383 11.9002 17.5L15.4002 14L11.9002 10.5C11.5618 10.1616 11.5618 9.60165 11.9002 9.26331C12.2385 8.92498 12.7985 8.92498 13.1368 9.26331L17.2552 13.3816C17.6052 13.72 17.6052 14.28 17.2552 14.6183Z" fill="white"/>
</svg>
