<svg width="24" height="25" viewBox="0 0 24 25" fill="none" xmlns="http://www.w3.org/2000/svg">
<path d="M12 16.83C9.61001 16.83 7.67001 14.89 7.67001 12.5C7.67001 10.11 9.61001 8.17004 12 8.17004C14.39 8.17004 16.33 10.11 16.33 12.5C16.33 14.89 14.39 16.83 12 16.83ZM12 9.67004C10.44 9.67004 9.17001 10.94 9.17001 12.5C9.17001 14.06 10.44 15.33 12 15.33C13.56 15.33 14.83 14.06 14.83 12.5C14.83 10.94 13.56 9.67004 12 9.67004Z" fill="#DADADA"/>
<path d="M12 21.52C8.23999 21.52 4.68999 19.32 2.24999 15.5C1.18999 13.85 1.18999 11.16 2.24999 9.49998C4.69999 5.67998 8.24999 3.47998 12 3.47998C15.75 3.47998 19.3 5.67998 21.74 9.49998C22.8 11.15 22.8 13.84 21.74 15.5C19.3 19.32 15.75 21.52 12 21.52ZM12 4.97998C8.76999 4.97998 5.67999 6.91998 3.51999 10.31C2.76999 11.48 2.76999 13.52 3.51999 14.69C5.67999 18.08 8.76999 20.02 12 20.02C15.23 20.02 18.32 18.08 20.48 14.69C21.23 13.52 21.23 11.48 20.48 10.31C18.32 6.91998 15.23 4.97998 12 4.97998Z" fill="#DADADA"/>
</svg>
