<svg width="30" height="31" viewBox="0 0 30 31" fill="none" xmlns="http://www.w3.org/2000/svg">
<path fill-rule="evenodd" clip-rule="evenodd" d="M5.58551 3.203C4.66088 2.40473 3.70231 1.66128 2.7 0.972656L0 4.78266C3.88748 7.61199 7.12511 11.0354 9.71071 15.0701C8.20535 16.1068 6.7461 17.2102 5.33295 18.3805C3.94183 19.5281 2.68371 20.8046 1.55854 22.21C0.927384 23.0323 0.482312 23.936 0.15934 24.928C-0.342052 27.0994 0.354824 28.7594 2.25 29.9077C3.0545 30.3285 3.87375 30.5823 4.7717 30.7226C6.11977 30.9428 7.48535 31.0131 8.85 30.9427C9.8016 30.9096 10.7278 30.8036 11.647 30.5562C14.4919 29.7415 16.2832 27.9039 17.021 25.0435C17.2333 24.0265 17.3221 22.9978 17.2876 21.9575C17.9559 22.518 18.62 23.0838 19.28 23.6548C21.8228 25.9488 24.2245 28.4132 26.49 30.9727L30 27.8227C26.1585 23.4436 21.921 19.4955 17.3157 15.9819C18.2303 15.4377 19.1563 14.9093 20.0938 14.3968C23.2882 12.6831 26.6465 11.1256 30 9.76266L28.17 5.44266C23.2083 7.42948 18.308 9.86091 13.7377 12.6153C11.4629 9.1146 8.7455 5.97717 5.58551 3.203ZM11.9417 19.3204C11.9228 19.2993 11.8995 19.2899 11.8715 19.2923C10.9604 19.9399 10.0624 20.6085 9.17752 21.2982C7.98234 22.2403 6.86452 23.2736 5.82405 24.3982C5.41099 24.8592 5.06021 25.3642 4.7717 25.9132C5.01786 26.003 5.27043 26.0731 5.52939 26.1236C6.59021 26.2846 7.65659 26.3407 8.72852 26.2919C9.27941 26.2574 9.82195 26.1732 10.3561 26.0394C11.7516 25.6537 12.4859 24.7324 12.5591 23.276C12.6177 21.9167 12.412 20.5981 11.9417 19.3204Z" fill="#4F93E1"/>
</svg>
