<svg width="130" height="36" viewBox="0 0 130 36" fill="none" xmlns="http://www.w3.org/2000/svg">
<g clip-path="url(#clip0_137_14)">
<path d="M16.6362 17.7192C20.0224 15.7284 22.7198 14.3964 27.0262 12.6456M16.6362 17.7192C14.603 14.2751 12.2842 11.5081 9.10065 9.25002M16.6362 17.7192C16.6362 17.7192 21.3924 20.1575 27.0262 26.4374M16.6362 17.7192C13.0059 19.8536 4.73064 26.4047 13.3351 26.4374C19.6808 26.4615 18.2642 20.4765 16.6362 17.7192Z" stroke="#171717" stroke-width="2.98465"/>
<path d="M36.9418 27.2969C35.2885 27.2969 33.8071 26.9918 32.4975 26.3815C31.188 25.7631 30.1649 24.9006 29.4283 23.794C28.6917 22.6792 28.3234 21.3976 28.3234 19.9493C28.3234 18.5253 28.6753 17.2641 29.3792 16.1656C30.0831 15.059 31.0611 14.2005 32.3134 13.5903C33.5656 12.98 34.9816 12.6749 36.5612 12.6749C38.149 12.6749 39.5322 13.0288 40.7108 13.7367C41.8894 14.4365 42.7938 15.4373 43.424 16.7392C44.0624 18.033 44.3816 19.5424 44.3816 21.2674H32.7185C33.0295 22.2113 33.6352 22.9396 34.5355 23.4522C35.4358 23.9648 36.5776 24.2212 37.9608 24.2212C39.0166 24.2212 40.0765 24.0706 41.1405 23.7696C42.2045 23.4685 43.158 23.0454 44.0011 22.5002V25.2342C43.0762 25.8851 41.9999 26.3937 40.7722 26.7599C39.5527 27.1179 38.2759 27.2969 36.9418 27.2969ZM40.3916 18.5578C40.1543 17.6384 39.7041 16.9305 39.0412 16.4341C38.3864 15.9296 37.5679 15.6774 36.5858 15.6774C35.5463 15.6774 34.6747 15.9378 33.9708 16.4585C33.2751 16.9712 32.8167 17.6709 32.5958 18.5578H40.3916Z" fill="#171717"/>
<path d="M48.9189 13.0532L52.6144 22.8908L56.3957 13.0532H60.3857L64.1056 22.9152L67.8134 13.0532H71.9138L66.4874 26.9307H62.3009L58.3722 16.8247L54.37 26.9307H50.1835L44.7693 13.0532H48.9189Z" fill="#171717"/>
<path d="M85.5329 23.8062C84.8371 24.9128 83.9574 25.7712 82.8932 26.3815C81.8374 26.9918 80.6628 27.2969 79.3698 27.2969C78.0191 27.2969 76.8162 26.9918 75.7604 26.3815C74.7045 25.7712 73.8817 24.9128 73.2925 23.8062C72.7115 22.6996 72.421 21.4302 72.421 19.9981C72.421 18.5578 72.7115 17.2844 73.2925 16.1778C73.8817 15.063 74.7002 14.2005 75.7482 13.5903C76.8037 12.98 78.0109 12.6749 79.3698 12.6749C80.6628 12.6749 81.8374 12.98 82.8932 13.5903C83.9574 14.1924 84.8411 15.0468 85.5451 16.1534L85.9009 13.0532H90.1487L89.3386 19.9859L90.1487 26.9307H85.9009L85.5329 23.8062ZM76.5827 19.9981C76.5827 20.7955 76.7506 21.5075 77.0863 22.134C77.4216 22.7606 77.8843 23.2488 78.4736 23.5987C79.0711 23.9486 79.746 24.1235 80.4992 24.1235C81.2603 24.1235 81.9848 23.9486 82.6723 23.5987C83.3598 23.2488 83.9613 22.7646 84.477 22.1462C85.0007 21.5197 85.4099 20.8037 85.7047 19.9981C85.4099 19.1925 85.0007 18.4765 84.477 17.8499C83.9613 17.2234 83.3598 16.7352 82.6723 16.3853C81.9848 16.0273 81.2603 15.8483 80.4992 15.8483C79.746 15.8483 79.0711 16.0273 78.4736 16.3853C77.8843 16.7352 77.4216 17.2275 77.0863 17.8621C76.7506 18.4887 76.5827 19.2007 76.5827 19.9981Z" fill="#171717"/>
<path d="M91.4904 14.3104L94.4001 13.3584L96.1435 9.3672H98.5006V13.0532H104.676V16.1168H98.5006V21.1576C98.5006 21.8899 98.5988 22.4676 98.7954 22.8908C98.9916 23.3139 99.3068 23.619 99.7404 23.8061C100.174 23.9933 100.768 24.0869 101.521 24.0869C102.208 24.0869 102.822 24.0218 103.362 23.8916C103.911 23.7614 104.431 23.5661 104.922 23.3057V26.4913C104.414 26.711 103.767 26.8982 102.982 27.0528C102.196 27.2155 101.406 27.2969 100.612 27.2969C98.5006 27.2969 96.9372 26.8087 95.9226 25.8322C94.9076 24.8558 94.4001 23.4929 94.4001 21.7435V16.1168H91.4904V14.3104Z" fill="#171717"/>
<path d="M114.56 27.2969C112.907 27.2969 111.425 26.9918 110.116 26.3815C108.806 25.7631 107.783 24.9006 107.047 23.794C106.31 22.6792 105.942 21.3976 105.942 19.9493C105.942 18.5253 106.293 17.2641 106.997 16.1656C107.701 15.059 108.679 14.2005 109.932 13.5903C111.184 12.98 112.6 12.6749 114.179 12.6749C115.767 12.6749 117.151 13.0288 118.329 13.7367C119.508 14.4365 120.412 15.4373 121.042 16.7392C121.681 18.033 122 19.5424 122 21.2674H110.337C110.648 22.2113 111.254 22.9396 112.154 23.4522C113.054 23.9648 114.196 24.2212 115.579 24.2212C116.635 24.2212 117.695 24.0706 118.759 23.7696C119.823 23.4685 120.776 23.0454 121.619 22.5002V25.2342C120.694 25.8851 119.618 26.3937 118.39 26.7599C117.171 27.1179 115.894 27.2969 114.56 27.2969ZM118.01 18.5578C117.772 17.6384 117.322 16.9305 116.66 16.4341C116.005 15.9296 115.186 15.6774 114.204 15.6774C113.164 15.6774 112.293 15.9378 111.589 16.4585C110.893 16.9712 110.435 17.6709 110.214 18.5578H118.01Z" fill="#171717"/>
</g>
<defs>
<clipPath id="clip0_137_14">
<rect width="114" height="20" fill="white" transform="translate(8 8)"/>
</clipPath>
</defs>
</svg>
