<svg width="20" height="21" viewBox="0 0 20 21" fill="none" xmlns="http://www.w3.org/2000/svg">
<path d="M17.258 3.54574C17.258 3.54574 18.8769 2.91449 18.742 4.44753C18.697 5.07878 18.2923 7.28816 17.9775 9.67791L16.8983 16.7569C16.8983 16.7569 16.8084 17.794 15.9989 17.9744C15.1895 18.1547 13.9753 17.3431 13.7505 17.1627C13.5706 17.0275 10.3778 14.9984 9.25358 14.0065C8.93879 13.7359 8.57904 13.1949 9.29854 12.5636L14.0203 8.0547C14.5599 7.51362 15.0995 6.25112 12.8511 7.78416L6.55546 12.0677C6.55546 12.0677 5.83596 12.5185 4.48692 12.1127L1.56393 11.2109C1.56393 11.2109 0.484671 10.5346 2.3284 9.85824C6.82529 7.73903 12.3565 5.57474 17.258 3.54574Z" fill="black" fill-opacity="0.5"/>
</svg>
