<svg width="24" height="24" viewBox="0 0 24 24" fill="none" xmlns="http://www.w3.org/2000/svg">
<g clip-path="url(#clip0_223_300)">
<path d="M16.5915 7.52981C16.596 7.52981 16.602 7.52981 16.608 7.52981C16.7648 7.52981 16.9103 7.57856 17.0295 7.66255L17.0273 7.66106C17.1143 7.7368 17.1728 7.84331 17.187 7.9633V7.96556C17.202 8.05705 17.2103 8.16206 17.2103 8.26931C17.2103 8.31806 17.2088 8.36606 17.205 8.41405V8.4073C17.0363 10.1841 16.3043 14.4928 15.9323 16.4818C15.7748 17.3241 15.465 17.6061 15.165 17.6331C14.5133 17.6938 14.0183 17.2026 13.3868 16.7886C12.3983 16.1398 11.8395 15.7363 10.8803 15.1041C9.77102 14.3743 10.4903 13.9716 11.1218 13.3161C11.2875 13.1436 14.1608 10.5298 14.217 10.2928C14.22 10.2786 14.2215 10.2628 14.2215 10.2463C14.2215 10.1878 14.1998 10.1346 14.1645 10.0941C14.1255 10.0686 14.0768 10.0543 14.0258 10.0543C13.992 10.0543 13.9598 10.0611 13.9298 10.0723L13.9313 10.0716C13.8323 10.0941 12.2533 11.1376 9.19427 13.2021C8.86052 13.4653 8.43902 13.6318 7.98002 13.6513H7.97552C7.32527 13.5726 6.73502 13.4278 6.17477 13.2216L6.23027 13.2396C5.52677 13.0101 4.96802 12.8893 5.01602 12.5008C5.04152 12.2988 5.32002 12.0921 5.85152 11.8806C9.12552 10.4541 11.3088 9.51381 12.4013 9.0598C13.6065 8.42005 15.0038 7.89355 16.473 7.5523L16.5908 7.52905L16.5915 7.52981ZM11.9475 0.768555C5.72102 0.783555 0.678772 5.8348 0.678772 12.0636C0.678772 18.3013 5.73527 23.3586 11.9738 23.3586C18.2123 23.3586 23.2688 18.3021 23.2688 12.0636C23.2688 5.8348 18.2265 0.783555 12.0015 0.768555H12C11.9825 0.768555 11.965 0.768555 11.9475 0.768555Z" fill="white"/>
</g>
<defs>
<clipPath id="clip0_223_300">
<rect width="24" height="24" fill="white"/>
</clipPath>
</defs>
</svg>
